<svg xmlns="http://www.w3.org/2000/svg" width="1440" height="1202" viewBox="0 0 1440 1202" fill="none">
<path d="M382.611 53.9192C136.969 51.3508 -22.3301 97.8676 -210.41 163.505L-359 1068.44C-277.119 1112.96 -58.6075 1202 160.395 1202C434.149 1202 537.225 1153.49 845.114 1153.49C1153 1153.49 1358.48 1202 1620.86 1202C1883.23 1202 1951.51 1146.07 2122.85 1087.85C2259.93 1041.27 2065.74 356.516 1951.51 19.9591C1903.98 10.2562 1783.91 -6.7524 1683.78 2.83635C1558.61 14.8223 1136.94 79.0501 965.592 81.3331C794.245 83.6161 628.253 56.4876 382.611 53.9192Z" fill="white"/>
</svg>