<svg xmlns="http://www.w3.org/2000/svg" width="119" height="22" viewBox="0 0 119 22" fill="none">
<path d="M35.3152 1.9382L35.125 1.35279L34.9348 1.9382L32.7907 8.53708H25.8522H25.2367L25.7346 8.89889L31.348 12.9772L29.2039 19.5761L29.0137 20.1615L29.5117 19.7997L35.125 15.7214L40.7383 19.7997L41.2363 20.1615L41.0461 19.5761L38.902 12.9772L44.5154 8.89889L45.0133 8.53708H44.3978H37.4593L35.3152 1.9382Z" fill="#FD8F35" stroke="black" stroke-width="0.4"/>
<path d="M10.9402 1.9382L10.75 1.35279L10.5598 1.9382L8.41568 8.53708H1.4772H0.861662L1.35964 8.89889L6.97299 12.9772L4.82888 19.5761L4.63867 20.1615L5.13665 19.7997L10.75 15.7214L16.3633 19.7997L16.8613 20.1615L16.6711 19.5761L14.527 12.9772L20.1404 8.89889L20.6383 8.53708H20.0228H13.0843L10.9402 1.9382Z" fill="#FD8F35" stroke="black" stroke-width="0.4"/>
<path d="M59.6902 1.9382L59.5 1.35279L59.3098 1.9382L57.1657 8.53708H50.2272H49.6117L50.1096 8.89889L55.723 12.9772L53.5789 19.5761L53.3887 20.1615L53.8867 19.7997L59.5 15.7214L65.1133 19.7997L65.6113 20.1615L65.4211 19.5761L63.277 12.9772L68.8904 8.89889L69.3883 8.53708H68.7728H61.8343L59.6902 1.9382Z" fill="#FD8F35" stroke="black" stroke-width="0.4"/>
<path d="M84.0652 1.9382L83.875 1.35279L83.6848 1.9382L81.5407 8.53708H74.6022H73.9867L74.4846 8.89889L80.098 12.9772L77.9539 19.5761L77.7637 20.1615L78.2617 19.7997L83.875 15.7214L89.4883 19.7997L89.9863 20.1615L89.7961 19.5761L87.652 12.9772L93.2654 8.89889L93.7633 8.53708H93.1478H86.2093L84.0652 1.9382Z" fill="#FD8F35" stroke="black" stroke-width="0.4"/>
<path d="M108.44 1.9382L108.25 1.35279L108.06 1.9382L105.916 8.53708H98.9772H98.3617L98.8596 8.89889L104.473 12.9772L102.329 19.5761L102.139 20.1615L102.637 19.7997L108.25 15.7214L113.863 19.7997L114.361 20.1615L114.171 19.5761L112.027 12.9772L117.64 8.89889L118.138 8.53708H117.523H110.584L108.44 1.9382Z" fill="url(#paint0_linear_92_297)" stroke="black" stroke-width="0.4"/>
<defs>
<linearGradient id="paint0_linear_92_297" x1="98.5" y1="2" x2="118.609" y2="2" gradientUnits="userSpaceOnUse">
<stop stop-color="#FF9035"/>
<stop offset="0.479167" stop-color="#FF9035" stop-opacity="0.687027"/>
<stop offset="0.505208" stop-color="white" stop-opacity="0.239583"/>
<stop offset="1" stop-color="#FEFEFE" stop-opacity="0"/>
</linearGradient>
</defs>
</svg>