<svg xmlns="http://www.w3.org/2000/svg" width="182" height="132" viewBox="0 0 182 132" fill="none">
<circle cx="90.9998" cy="60.6666" r="27.8333" stroke="#E46902" stroke-opacity="0.5" stroke-width="5" stroke-linecap="round"/>
<path d="M111.379 58.125C114.065 53.4739 118.488 50.08 123.675 48.69C128.863 47.3 134.39 48.0277 139.042 50.713C143.693 53.3983 147.086 57.8213 148.477 63.0089C149.867 68.1965 149.139 73.7239 146.454 78.375C143.768 83.0261 139.345 86.42 134.158 87.81C128.97 89.2 123.443 88.4723 118.792 85.787C114.14 83.1017 110.747 78.6787 109.357 73.4911C107.966 68.3035 108.694 62.7761 111.379 58.125L111.379 58.125Z" stroke="#E46902" stroke-opacity="0.5" stroke-width="5"/>
<path d="M128.019 136.5L125.568 136.994L125.972 139H128.019V136.5ZM159.072 135.397L156.612 135.844L156.612 135.844L159.072 135.397ZM112.088 111.555L110.576 109.564L107.684 111.76L110.768 113.678L112.088 111.555ZM158.117 134H128.019V139H158.117V134ZM156.612 135.844C156.419 134.776 157.289 134 158.117 134V139C160.148 139 161.941 137.203 161.532 134.951L156.612 135.844ZM128.917 108.667C139.648 108.667 146.235 114.027 150.365 120.139C154.56 126.346 156.143 133.259 156.612 135.844L161.532 134.951C161.012 132.088 159.269 124.385 154.508 117.339C149.683 110.198 141.688 103.667 128.917 103.667V108.667ZM113.6 113.546C117.386 110.67 122.344 108.667 128.917 108.667V103.667C121.234 103.667 115.217 106.039 110.576 109.564L113.6 113.546ZM110.768 113.678C120.4 119.669 124.136 129.882 125.568 136.994L130.47 136.006C128.928 128.352 124.764 116.494 113.408 109.432L110.768 113.678Z" fill="#E46902" fill-opacity="0.5"/>
<path d="M91.0002 106.167C125.256 106.167 128.563 137.115 128.883 143.091C128.912 143.643 128.469 144.083 127.917 144.083H54.0835C53.5312 144.083 53.0882 143.643 53.1176 143.091C53.437 137.115 56.7444 106.167 91.0002 106.167Z" stroke="#E46902" stroke-opacity="0.5" stroke-width="5" stroke-linecap="round"/>
</svg>