<svg xmlns="http://www.w3.org/2000/svg" width="151" height="115" viewBox="0 0 151 115" fill="none">
<path d="M99.6667 35.2222L85.1667 15.8889C80.4219 9.56528 78.0536 6.39944 74.6461 4.69972C71.2467 3 67.2914 3 59.3889 3H35.2222C20.0294 3 12.4411 3 7.72056 7.72056C3 12.4411 3 20.0294 3 35.2222M99.6667 35.2222H115.778C130.971 35.2222 138.559 35.2222 143.279 39.9428C148 44.6633 148 52.2517 148 67.4444V115.778C148 130.971 148 138.559 143.279 143.279C138.559 148 130.971 148 115.778 148H35.2222C20.0294 148 12.4411 148 7.72056 143.279C3 138.559 3 130.971 3 115.778V35.2222M99.6667 35.2222H3" stroke="#E46902" stroke-opacity="0.5" stroke-width="5" stroke-linecap="round"/>
</svg>