<svg xmlns="http://www.w3.org/2000/svg" width="178" height="100" viewBox="0 0 178 100" fill="none">
<path d="M59.0895 95.6493C56.0721 92.6317 54.377 88.5391 54.377 84.2718C54.377 80.0045 56.0721 75.9119 59.0895 72.8943L125.28 6.71255C128.298 3.69515 132.39 2 136.658 2C140.925 2 145.017 3.69515 148.035 6.71255C151.052 9.73009 152.748 13.8227 152.748 18.09C152.748 22.3574 151.052 26.4499 148.035 29.4675L81.8357 95.6493C78.8185 98.664 74.7278 100.357 70.4626 100.357C66.1974 100.357 62.1067 98.664 59.0895 95.6493Z" stroke="#E46902" stroke-opacity="0.5" stroke-width="2.59287" stroke-linecap="round" stroke-linejoin="round"/>
<path d="M31.8823 67.2715V99.4525" stroke="#E46902" stroke-opacity="0.5" stroke-width="2.59287" stroke-linecap="round" stroke-linejoin="round"/>
<path d="M3.66229 28.7479C-2.66275 47.0852 9.75914 67.1457 29.1146 68.4066C29.8148 68.4534 30.5218 68.4768 31.2356 68.4768C35.374 68.488 39.4749 67.693 43.3093 66.1364C49.9264 63.2806 55.2753 58.1103 58.3542 51.594C61.433 45.0777 62.0305 37.6624 60.0347 30.7372L53.3615 5.83496H11.3243L3.66229 28.7479Z" stroke="#E46902" stroke-opacity="0.5" stroke-width="2.59287" stroke-linecap="round" stroke-linejoin="round"/>
<path d="M2.21997 42.1294C2.91583 48.9661 5.98964 55.3416 10.9053 60.1439C15.8209 64.9462 22.2664 67.8704 29.1175 68.4066C29.8177 68.4535 30.5247 68.4769 31.2385 68.4769C35.3769 68.488 39.4778 67.693 43.3122 66.1364C49.9293 63.2806 55.2783 58.1103 58.3571 51.594C61.4359 45.0777 62.0334 37.6625 60.0376 30.7373L59.549 28.9819C51.1321 31.4609 43.0949 35.0823 35.6619 39.745C20.765 48.3959 9.37294 45.9501 2.21997 42.1294Z" stroke="#E46902" stroke-opacity="0.5" stroke-width="2.59287" stroke-linecap="round" stroke-linejoin="round"/>
<path d="M114.883 17.1011L134.277 17.537" stroke="#E46902" stroke-opacity="0.5" stroke-width="2.59287" stroke-linecap="round" stroke-linejoin="round"/>
<path d="M94.4041 37.5801L113.798 38.016" stroke="#E46902" stroke-opacity="0.5" stroke-width="2.59287" stroke-linecap="round" stroke-linejoin="round"/>
<path d="M73.9253 58.0588L90.3932 58.2753" stroke="#E46902" stroke-opacity="0.5" stroke-width="2.59287" stroke-linecap="round" stroke-linejoin="round"/>
<path d="M58.2236 75.6531L75.7652 76.048" stroke="#E46902" stroke-opacity="0.5" stroke-width="2.59287" stroke-linecap="round" stroke-linejoin="round"/>
<path d="M114.789 80.8835H176.225V113.065H114.789V80.8835Z" stroke="#E46902" stroke-opacity="0.5" stroke-width="2.59287" stroke-linecap="round" stroke-linejoin="round"/>
<path d="M132.342 63.3301L114.789 80.8834H141.119V96.9739C141.119 98.1378 141.581 99.2539 142.404 100.077C143.227 100.9 144.343 101.362 145.507 101.362C146.671 101.362 147.787 100.9 148.61 100.077C149.433 99.2539 149.895 98.1378 149.895 96.9739V88.1973C149.895 89.3611 150.358 90.4773 151.18 91.3003C152.003 92.1232 153.12 92.5856 154.283 92.5856C155.447 92.5856 156.564 92.1232 157.387 91.3003C158.209 90.4773 158.672 89.3611 158.672 88.1973V80.8834H176.225L132.342 63.3301Z" stroke="#E46902" stroke-opacity="0.5" stroke-width="2.59287" stroke-linecap="round" stroke-linejoin="round"/>
</svg>