<svg xmlns="http://www.w3.org/2000/svg" width="219" height="132" viewBox="0 0 219 132" fill="none">
<g opacity="0.5">
<mask id="path-1-outside-1_727_5027" maskUnits="userSpaceOnUse" x="51.1526" y="24.9577" width="164.867" height="164.867" fill="black">
<rect fill="white" x="51.1526" y="24.9577" width="164.867" height="164.867"/>
<path d="M197.588 113.932L95.268 69.7109C95.0153 69.6016 94.8889 69.547 94.7543 69.5284C94.6196 69.5097 94.4832 69.5279 94.2103 69.5643L58.973 74.2599C58.6041 74.3091 58.4196 74.3336 58.3635 74.4636C58.3073 74.5935 58.4158 74.7447 58.6328 75.047L79.3583 103.929L79.3584 103.929C79.5188 104.153 79.599 104.265 79.7049 104.35C79.8107 104.435 79.9371 104.49 80.1897 104.599L80.1898 104.599L182.51 148.82C183.375 149.194 183.808 149.381 184.193 149.229C184.578 149.076 184.765 148.643 185.139 147.778L198.63 116.562C199.004 115.696 199.191 115.263 199.039 114.878C198.886 114.493 198.453 114.306 197.588 113.932Z"/>
</mask>
<path d="M95.268 69.7109L93.2843 74.3005L93.2843 74.3005L95.268 69.7109ZM197.588 113.932L195.604 118.522L195.604 118.522L197.588 113.932ZM198.63 116.562L194.041 114.578L194.041 114.578L198.63 116.562ZM185.139 147.778L189.729 149.761L189.729 149.761L185.139 147.778ZM182.51 148.82L180.526 153.41L180.526 153.41L182.51 148.82ZM94.2103 69.5643L93.5499 64.6081L93.5499 64.6081L94.2103 69.5643ZM58.973 74.2599L59.6334 79.2161L59.6334 79.2161L58.973 74.2599ZM58.6328 75.047L62.6951 72.132L62.695 72.1319L58.6328 75.047ZM79.3583 103.929L75.296 106.844L79.3583 103.929ZM80.1897 104.599L78.2059 109.189L78.2061 109.189L80.1897 104.599ZM79.7049 104.35L76.568 108.243L76.5682 108.244L79.7049 104.35ZM79.3584 103.929L75.296 106.844L75.2961 106.844L79.3584 103.929ZM94.7543 69.5284L95.4408 64.5757L95.4407 64.5757L94.7543 69.5284ZM93.2843 74.3005L195.604 118.522L199.571 109.342L97.2516 65.1212L93.2843 74.3005ZM194.041 114.578L180.549 145.794L189.729 149.761L203.22 118.545L194.041 114.578ZM184.493 144.231L82.1734 100.009L78.2062 109.189L180.526 153.41L184.493 144.231ZM93.5499 64.6081L58.3125 69.3037L59.6334 79.2161L94.8708 74.5204L93.5499 64.6081ZM54.5705 77.9621L75.296 106.844L83.4206 101.014L62.6951 72.132L54.5705 77.9621ZM58.3125 69.3037C58.2947 69.3061 57.7108 69.3705 57.1695 69.5261C56.5684 69.6989 54.696 70.3462 53.7738 72.48L62.9532 76.4472C62.5595 77.3582 61.9329 78.0422 61.269 78.5001C60.6842 78.9033 60.1567 79.0723 59.9325 79.1368C59.6952 79.205 59.5242 79.2307 59.5227 79.231C59.5131 79.2325 59.5212 79.231 59.6334 79.2161L58.3125 69.3037ZM62.695 72.1319C62.6291 72.04 62.6245 72.033 62.63 72.0411C62.6309 72.0423 62.7293 72.1845 62.8422 72.4041C62.9489 72.6116 63.1873 73.1116 63.2943 73.8139C63.4158 74.6111 63.3469 75.5362 62.9532 76.4472L53.7738 72.48C52.8516 74.6137 53.6632 76.421 53.9492 76.9772C54.2068 77.4782 54.56 77.9475 54.5705 77.9622L62.695 72.1319ZM82.1734 100.009L82.1733 100.009L78.2061 109.189L78.2062 109.189L82.1734 100.009ZM82.1734 100.009C82.1033 99.979 82.0743 99.9664 82.0543 99.9575C82.0354 99.9491 82.0648 99.9617 82.117 99.9877C82.2376 100.048 82.5201 100.197 82.8416 100.456L76.5682 108.244C77.3247 108.853 78.1972 109.185 78.2059 109.189L82.1734 100.009ZM75.296 106.844L75.296 106.844L83.4207 101.014L83.4206 101.014L75.296 106.844ZM75.2961 106.844C75.3017 106.852 75.8116 107.634 76.568 108.243L82.8417 100.456C83.1632 100.715 83.3695 100.959 83.4537 101.065C83.4902 101.11 83.5088 101.136 83.4966 101.119C83.4836 101.102 83.4651 101.076 83.4206 101.014L75.2961 106.844ZM180.549 145.794C180.448 146.028 180.394 146.154 180.349 146.249C180.304 146.347 180.321 146.301 180.386 146.193C180.452 146.083 180.634 145.797 180.961 145.479C181.319 145.13 181.785 144.805 182.35 144.581L186.036 153.877C187.653 153.235 188.525 152.063 188.955 151.348C189.31 150.758 189.598 150.064 189.729 149.761L180.549 145.794ZM180.526 153.41C180.829 153.541 181.514 153.848 182.177 154.035C182.98 154.261 184.418 154.518 186.036 153.877L182.35 144.581C182.915 144.357 183.478 144.274 183.977 144.283C184.434 144.291 184.762 144.374 184.886 144.409C185.007 144.443 185.051 144.465 184.951 144.425C184.853 144.386 184.727 144.331 184.493 144.231L180.526 153.41ZM195.604 118.522C195.838 118.623 195.964 118.678 196.059 118.722C196.157 118.767 196.111 118.75 196.003 118.686C195.893 118.619 195.607 118.437 195.289 118.11C194.94 117.753 194.615 117.286 194.391 116.721L203.687 113.036C203.045 111.418 201.873 110.547 201.158 110.117C200.568 109.761 199.874 109.473 199.571 109.342L195.604 118.522ZM203.22 118.545C203.351 118.242 203.658 117.557 203.845 116.894C204.071 116.091 204.328 114.653 203.687 113.036L194.391 116.721C194.167 116.156 194.084 115.593 194.093 115.094C194.101 114.637 194.184 114.31 194.219 114.185C194.253 114.064 194.275 114.02 194.235 114.12C194.196 114.218 194.142 114.344 194.041 114.578L203.22 118.545ZM97.2516 65.1212C97.2425 65.1172 96.4031 64.7091 95.4408 64.5757L94.0678 74.481C93.6589 74.4243 93.3564 74.3211 93.2301 74.2743C93.1754 74.2541 93.146 74.2413 93.165 74.2493C93.1852 74.2578 93.2142 74.2703 93.2843 74.3005L97.2516 65.1212ZM94.8708 74.5204C94.9465 74.5104 94.9778 74.5062 94.9995 74.5036C95.02 74.5011 94.9883 74.5054 94.9302 74.51C94.7959 74.5206 94.4767 74.5377 94.0679 74.481L95.4407 64.5757C94.4784 64.4424 93.5597 64.6068 93.5499 64.6081L94.8708 74.5204Z" fill="#E46902" mask="url(#path-1-outside-1_727_5027)"/>
<path d="M178.678 98.8589L158.574 145.376" stroke="#E46902" stroke-width="5"/>
</g>
</svg>