<svg xmlns="http://www.w3.org/2000/svg" width="215" height="132" viewBox="0 0 215 132" fill="none">
<circle cx="107.5" cy="51.6666" r="33.3333" stroke="#E46902" stroke-opacity="0.5" stroke-width="5" stroke-linecap="round"/>
<path d="M131.182 48.4375C134.415 42.8389 139.739 38.7537 145.983 37.0806C152.227 35.4074 158.881 36.2833 164.479 39.5156C170.078 42.748 174.163 48.0719 175.836 54.3163C177.509 60.5607 176.633 67.2139 173.401 72.8125C170.169 78.4111 164.845 82.4963 158.6 84.1694C152.356 85.8426 145.703 84.9667 140.104 81.7344C134.506 78.502 130.42 73.1781 128.747 66.9337C127.074 60.6893 127.95 54.0361 131.182 48.4375L131.182 48.4375Z" stroke="#E46902" stroke-opacity="0.5" stroke-width="5"/>
<path d="M41.5989 48.4375C44.8312 42.8389 50.1552 38.7537 56.3995 37.0806C62.6439 35.4074 69.2972 36.2833 74.8958 39.5156C80.4943 42.748 84.5795 48.0719 86.2527 54.3163C87.9259 60.5607 87.0499 67.2139 83.8176 72.8125C80.5853 78.4111 75.2613 82.4963 69.017 84.1694C62.7726 85.8426 56.1193 84.9667 50.5208 81.7344C44.9222 78.502 40.837 73.1781 39.1638 66.9337C37.4906 60.6893 38.3666 54.0361 41.5989 48.4375L41.5989 48.4375Z" stroke="#E46902" stroke-opacity="0.5" stroke-width="5"/>
<path d="M151.231 141.25L148.781 141.744L149.185 143.75H151.231V141.25ZM187.951 140.15L190.413 139.716L190.413 139.716L187.951 140.15ZM132.412 111.782L130.899 109.791L128.008 111.987L131.091 113.905L132.412 111.782ZM186.992 138.75H151.231V143.75H186.992V138.75ZM185.489 140.584C185.301 139.515 186.176 138.75 186.992 138.75V143.75C189.012 143.75 190.811 141.971 190.413 139.716L185.489 140.584ZM152.292 107.917C165.291 107.917 173.235 114.494 178.167 121.91C183.161 129.42 184.983 137.71 185.489 140.584L190.413 139.716C189.859 136.569 187.883 127.491 182.33 119.141C176.714 110.695 167.359 102.917 152.292 102.917V107.917ZM133.924 113.773C138.473 110.317 144.426 107.917 152.292 107.917V102.917C143.317 102.917 136.305 105.685 130.899 109.791L133.924 113.773ZM131.091 113.905C142.626 121.079 147.079 133.293 148.781 141.744L153.682 140.756C151.871 131.763 146.99 117.905 133.732 109.659L131.091 113.905Z" fill="#E46902" fill-opacity="0.5"/>
<path d="M82.5886 111.782L83.9089 113.905L86.9921 111.987L84.1007 109.791L82.5886 111.782ZM27.0487 140.15L29.5108 140.584L29.5108 140.584L27.0487 140.15ZM63.7687 141.25V143.75H65.8154L66.2195 141.744L63.7687 141.25ZM62.7086 107.917C70.5741 107.917 76.5268 110.317 81.0764 113.773L84.1007 109.791C78.6952 105.685 71.6838 102.917 62.7086 102.917V107.917ZM29.5108 140.584C30.0174 137.71 31.8388 129.42 36.8336 121.91C41.7651 114.494 49.7094 107.917 62.7086 107.917V102.917C47.6417 102.917 38.2869 110.695 32.6702 119.141C27.1171 127.491 25.1415 136.569 24.5867 139.716L29.5108 140.584ZM28.0079 138.75C28.8246 138.75 29.6993 139.515 29.5108 140.584L24.5867 139.716C24.1894 141.971 25.9881 143.75 28.0079 143.75V138.75ZM63.7687 138.75H28.0079V143.75H63.7687V138.75ZM66.2195 141.744C67.9214 133.293 72.3738 121.079 83.9089 113.905L81.2683 109.659C68.0099 117.905 63.1292 131.763 61.3179 140.756L66.2195 141.744Z" fill="#E46902" fill-opacity="0.5"/>
<path d="M107.5 105.417C148.342 105.417 151.943 142.658 152.261 149.225C152.288 149.777 151.844 150.208 151.292 150.208H63.7083C63.156 150.208 62.7123 149.777 62.739 149.225C63.0565 142.658 66.6577 105.417 107.5 105.417Z" stroke="#E46902" stroke-opacity="0.5" stroke-width="5" stroke-linecap="round"/>
</svg>