<svg xmlns="http://www.w3.org/2000/svg" width="97" height="89" viewBox="0 0 97 89" fill="none">
<path d="M65.5727 0H0V109.811H97V31.4273L65.5727 0ZM89.6792 102.491H7.32075V7.32075H62.5405L89.6792 34.4595V102.491Z" fill="#E46902" fill-opacity="0.5"/>
<path d="M43.8926 31.1133C40.4627 31.1114 37.0802 31.914 34.0168 33.4566C30.9534 34.9992 28.2945 37.2389 26.2538 39.9956C24.2131 42.7524 22.8475 45.9494 22.2666 49.3297C21.6857 52.71 21.9058 56.1795 22.9092 59.4593C23.9126 62.7392 25.6713 65.7379 28.044 68.2147C30.4168 70.6915 33.3373 72.5772 36.5711 73.7203C39.8049 74.8635 43.2617 75.2322 46.6639 74.7968C50.066 74.3615 53.3186 73.1342 56.1604 71.2136L71.7238 86.7769L76.9003 81.6006L61.4581 66.1584C63.8943 62.8997 65.3754 59.0272 65.7357 54.9744C66.096 50.9217 65.3212 46.8487 63.498 43.2113C61.6749 39.5739 58.8753 36.5157 55.4128 34.379C51.9502 32.2424 47.9613 31.1116 43.8926 31.1133ZM29.2829 53.0437C29.2829 50.1542 30.1397 47.3294 31.745 44.9268C33.3504 42.5242 35.6321 40.6516 38.3018 39.5457C40.9714 38.4399 43.909 38.1506 46.7431 38.7143C49.5771 39.278 52.1804 40.6695 54.2236 42.7127C56.2669 44.756 57.6584 47.3592 58.2221 50.1933C58.7858 53.0274 58.4965 55.965 57.3906 58.6346C56.2848 61.3042 54.4122 63.586 52.0096 65.1913C49.6069 66.7967 46.7822 67.6535 43.8926 67.6535C40.0192 67.6491 36.3057 66.1085 33.5668 63.3696C30.8279 60.6306 29.2873 56.9171 29.2829 53.0437Z" fill="#E46902" fill-opacity="0.5"/>
</svg>
