<svg xmlns="http://www.w3.org/2000/svg" width="133" height="103" viewBox="0 0 133 103" fill="none">
<path d="M116.375 118.037C116.375 113.05 133 103.075 133 92.2688C133 79.8 121.362 69.825 107.231 65.6688C113.05 59.0188 116.375 51.5375 116.375 42.3937C116.375 19.1187 92.2688 0 61.5125 0C32.4188 0 0 17.4562 0 42.3937C0 59.85 13.3 72.3188 19.1187 77.3063C18.2875 87.2813 14.1313 91.4375 14.1313 91.4375L4.15625 99.75H16.625C29.925 99.75 40.7312 95.5937 47.3812 90.6062V92.2688C47.3812 108.894 65.6687 122.194 88.9437 122.194H93.9313C97.2563 126.35 108.062 133.831 122.194 133.831C123.025 133 116.375 129.675 116.375 118.037ZM61.5125 8.3125C87.2812 8.3125 108.062 24.1062 108.062 42.3937C108.062 60.6812 86.45 76.475 59.85 76.475C58.1875 76.475 54.8625 76.475 53.2 76.475H50.7062L49.875 78.1375C47.3812 81.4625 37.4063 88.1125 24.1063 90.6062C24.9375 87.2812 24.9375 82.2938 24.9375 75.6438V73.15C16.625 66.5 7.48125 54.8625 7.48125 43.225C7.48125 24.9375 34.0813 8.3125 61.5125 8.3125Z" fill="#E46902" fill-opacity="0.5"/>
</svg>